<svg width="96" height="96" xmlns="http://www.w3.org/2000/svg" xmlns:xlink="http://www.w3.org/1999/xlink" overflow="hidden"><defs><clipPath id="clip0"><rect x="719" y="17" width="96" height="96"/></clipPath></defs><g clip-path="url(#clip0)" transform="translate(-719 -17)"><path d="M765 31 769 31 769 43 765 43Z" fill="#FF0000"/><path d="M796.909 37.9697 788.919 45.96 786.09 43.1316 794.081 35.1413Z" fill="#FF0000"/><path d="M747.859 43.0812 745.031 45.9096 737.041 37.9193 739.869 35.0909Z" fill="#FF0000"/><path d="M791 59 801 59 801 63 791 63Z" fill="#FF0000"/><path d="M733 59 743 59 743 63 733 63Z" fill="#FF0000"/><path d="M751 87 754.4 53 779.5 53 783 87 751 87ZM795 87 789 87 785.4 50.6C785.2 48.6 783.5 47 781.4 47L752.6 47C750.5 47 748.8 48.6 748.6 50.6L745 87 739 87 739 93 733 93 733 99 801 99 801 93 795 93 795 87Z" fill="#FF0000"/><path d="M771.8 57 774.3 83 778.4 83 775.8 57Z" fill="#FF0000"/></g></svg>