<svg width="96" height="96" xmlns="http://www.w3.org/2000/svg" xmlns:xlink="http://www.w3.org/1999/xlink" overflow="hidden"><defs><clipPath id="clip0"><rect x="579" y="19" width="96" height="96"/></clipPath></defs><g clip-path="url(#clip0)" transform="translate(-579 -19)"><path d="M669.6 99 630.5 31C629 28.3 625.1 28.3 623.6 31L584.4 99C582.9 101.7 584.8 105 587.9 105L627 105 666.1 105C669.2 105 671.1 101.7 669.6 99ZM624 47 630 47 630 82 624 82 624 47ZM627 96C624.2 96 622 93.8 622 91 622 88.2 624.2 86 627 86 629.8 86 632 88.2 632 91 632 93.8 629.8 96 627 96Z" fill="#FFC000"/></g></svg>